<svg width="263" height="45" viewBox="0 0 263 45" fill="none" xmlns="http://www.w3.org/2000/svg">
<g filter="url(#filter0_d_7_218)">
<path fill-rule="evenodd" clip-rule="evenodd" d="M215.956 8.2247C213.726 8.2247 211.935 6.43355 211.935 4.13063C211.935 1.86427 213.762 0 216.029 0C218.295 0 220.159 1.79116 220.159 4.05752C220.159 6.36044 218.295 8.2247 215.956 8.2247ZM139.521 32.2774H132.868V4.27685H139.63V11.9532C139.63 11.9532 142.628 9.39444 146.539 9.39444C153.155 9.39444 157.067 14.9872 157.067 21.0918C157.067 27.3426 153.082 32.8257 146.758 32.8257C143.798 32.8257 141.604 31.985 139.521 29.9379V32.2774ZM118.356 32.8257C111.447 32.8257 106.695 28.622 106.695 21.0918C106.695 14.2927 111.557 9.39444 118.173 9.39444C124.643 9.39444 129.212 13.6713 129.212 21.6767L129.214 21.8712C129.216 21.9847 129.219 22.0878 129.221 22.1862C129.229 22.4608 129.236 22.6995 129.212 23.0292H113.421C114.006 25.6976 116.126 26.977 118.685 26.977C120.787 26.977 122.207 25.5797 123.343 24.1332L123.547 23.8699C123.547 23.8699 126.861 25.7811 128.416 26.7155L128.847 26.977C126.873 30.4862 123.071 32.8257 118.356 32.8257ZM76.7571 32.2774L68.2034 9.83309H75.368L79.8276 22.2615L83.9217 9.83309H89.3683L93.6817 22.3346L98.1048 9.83309H105.16L96.7157 32.2774H90.8305L86.6633 20.2145L82.6423 32.2774H76.7571ZM118.1 15.0969C120.22 15.0969 121.39 16.1204 122.194 18.2771H113.677C114.518 16.1935 115.797 15.0969 118.1 15.0969ZM145.004 15.6818C148.074 15.6818 150.304 18.0943 150.304 20.9456C150.304 24.1258 148.623 26.7943 145.296 26.7943C141.751 26.7943 139.448 24.5644 139.448 21.0918C139.448 17.8385 141.824 15.6818 145.004 15.6818ZM171.762 33.045C164.889 33.045 159.626 27.4157 159.626 21.1649C159.626 14.4389 164.999 9.39444 171.908 9.39444C178.707 9.39444 184.007 14.2927 184.007 21.0552C184.007 27.8909 179.072 33.045 171.762 33.045ZM171.871 15.7914C175.051 15.7914 177.245 18.0578 177.245 20.9456C177.245 24.4548 175.198 26.6115 171.835 26.6115C168.728 26.6115 166.425 24.272 166.425 21.2746C166.425 18.204 168.581 15.7914 171.871 15.7914ZM201.078 32.2774H195.01L185.616 9.83309H193.219L198.117 22.9561L202.723 9.83309H209.888L201.078 32.2774ZM219.392 9.83309H212.593V32.2774H219.392V9.83309ZM223.047 21.1649C223.047 27.4157 228.311 33.045 235.183 33.045C242.494 33.045 247.429 27.8909 247.429 21.0552C247.429 14.2927 242.128 9.39444 235.329 9.39444C228.421 9.39444 223.047 14.4389 223.047 21.1649ZM240.666 20.9456C240.666 18.0578 238.473 15.7914 235.293 15.7914C232.003 15.7914 229.846 18.204 229.846 21.2746C229.846 24.272 232.149 26.6115 235.256 26.6115C238.619 26.6115 240.666 24.4548 240.666 20.9456Z" fill="white"/>
<path d="M254.082 24.1816C256.385 24.1816 258.285 26.0825 258.285 28.3854C258.285 30.6883 256.385 32.5891 254.082 32.5891C251.779 32.5891 249.878 30.6883 249.878 28.3854C249.878 26.0825 251.779 24.1816 254.082 24.1816Z" fill="white"/>
<path fill-rule="evenodd" clip-rule="evenodd" d="M38.6502 34.4842C37.35 36.6512 34.2094 36.6511 32.9092 34.4842L14.7815 4.27127L50.8656 4.27127C53.4676 4.27127 55.0748 7.10989 53.7361 9.34111L38.6502 34.4842Z" fill="#FFD723"/>
<path fill-rule="evenodd" clip-rule="evenodd" d="M20.1277 34.4842C21.4279 36.6512 24.5685 36.6511 25.8687 34.4842L43.9964 4.27127L7.91239 4.27127C5.31037 4.27127 3.70317 7.10989 5.0419 9.34111L20.1277 34.4842Z" fill="white"/>
<path fill-rule="evenodd" clip-rule="evenodd" d="M14.7816 4.27124H43.9965L29.39 28.617L14.7816 4.27124Z" fill="#F6F6F6"/>
</g>
<defs>
<filter id="filter0_d_7_218" x="0.559692" y="0" width="261.726" height="44.1094" filterUnits="userSpaceOnUse" color-interpolation-filters="sRGB">
<feFlood flood-opacity="0" result="BackgroundImageFix"/>
<feColorMatrix in="SourceAlpha" type="matrix" values="0 0 0 0 0 0 0 0 0 0 0 0 0 0 0 0 0 0 127 0" result="hardAlpha"/>
<feOffset dy="4"/>
<feGaussianBlur stdDeviation="2"/>
<feComposite in2="hardAlpha" operator="out"/>
<feColorMatrix type="matrix" values="0 0 0 0 0 0 0 0 0 0 0 0 0 0 0 0 0 0 0.25 0"/>
<feBlend mode="normal" in2="BackgroundImageFix" result="effect1_dropShadow_7_218"/>
<feBlend mode="normal" in="SourceGraphic" in2="effect1_dropShadow_7_218" result="shape"/>
</filter>
</defs>
</svg>
